<?xml version="1.0" encoding="utf-8"?>
<!-- Generator: Adobe Illustrator 28.2.0, SVG Export Plug-In . SVG Version: 6.00 Build 0)  -->
<svg version="1.1" id="NoPermissions" xmlns="http://www.w3.org/2000/svg" xmlns:xlink="http://www.w3.org/1999/xlink" x="0px"
	 y="0px" viewBox="0 0 80 80" style="enable-background:new 0 0 80 80;" xml:space="preserve">
<style type="text/css">
	.st0{opacity:0.97;fill:#004D42;enable-background:new    ;}
	.st1{fill:#FFFFFF;}
	.st2{fill:#00B398;}
</style>
<path id="circle" class="st0" d="M40,0C17.9,0,0,17.9,0,40s17.9,40,40,40s40-17.9,40-40S62.1,0,40,0z"/>
<path id="body" class="st1" d="M39.9,45.2c-14.3,0-25.9,6-25.9,13.5l0,0c5.8,8,15.3,13.3,26,13.3c10.6,0,20-5.2,25.9-13.2v-0.2
	C65.9,51.2,54.3,45.2,39.9,45.2z"/>
<path id="head" class="st1" d="M39.9,38.4c3.4,0,6.7-1.4,9.2-3.9c2.4-2.5,3.8-5.9,3.8-9.5s-1.4-7-3.8-9.5c-2.4-2.5-5.7-3.9-9.2-3.9
	s-6.7,1.4-9.2,3.9C28.3,18,27,21.4,27,25s1.4,7,3.8,9.5S36.5,38.4,39.9,38.4z"/>
<path id="no" class="st2" d="M40,70c6.1,0,11-4.9,11-11s-4.9-11-11-11s-11,4.9-11,11S33.9,70,40,70z"/>
<path class="st1" d="M47.6,53.4L47.6,53.4c-0.7-0.7-1.7-0.7-2.4,0L37.5,61l-2.8-2.8c-0.6-0.6-1.7-0.6-2.3,0l0,0
	c-0.6,0.6-0.6,1.7,0,2.3l4.1,4.1c0.6,0.6,1.7,0.6,2.3,0l8.9-8.9C48.2,55.1,48.2,54.1,47.6,53.4L47.6,53.4z"/>
</svg>
