<?xml version="1.0" encoding="utf-8"?>
<!-- Generator: Adobe Illustrator 28.2.0, SVG Export Plug-In . SVG Version: 6.00 Build 0)  -->
<svg version="1.1" id="NoPermissions" xmlns="http://www.w3.org/2000/svg" xmlns:xlink="http://www.w3.org/1999/xlink" x="0px"
	 y="0px" viewBox="0 0 80 80" style="enable-background:new 0 0 80 80;" xml:space="preserve">
<style type="text/css">
	.st0{opacity:0.97;fill:#520A0A;}
	.st1{fill:#FFFFFF;}
	.st2{fill:#CC0000;}
</style>
<path id="circle" class="st0" d="M40,0C17.9,0,0,17.9,0,40s17.9,40,40,40s40-17.9,40-40S62.1,0,40,0z"/>
<path id="body" class="st1" d="M39.9,45.2c-14.3,0-25.9,6-25.9,13.5v0C19.8,66.7,29.3,72,40,72c10.6,0,20-5.2,25.9-13.2v-0.2
	C65.9,51.2,54.3,45.2,39.9,45.2z"/>
<path id="head" class="st1" d="M39.9,38.4c3.4,0,6.7-1.4,9.2-3.9c2.4-2.5,3.8-5.9,3.8-9.5c0-3.6-1.4-7-3.8-9.5
	c-2.4-2.5-5.7-3.9-9.2-3.9s-6.7,1.4-9.2,3.9C28.3,18,27,21.4,27,25c0,3.6,1.4,7,3.8,9.5C33.2,37,36.5,38.4,39.9,38.4z"/>
<path id="no" class="st2" d="M40,70c6.1,0,11-4.9,11-11s-4.9-11-11-11s-11,4.9-11,11S33.9,70,40,70z M34.4,55.8
	c-0.6-0.6-0.6-1.7,0-2.3l0,0c0.6-0.6,1.7-0.6,2.3,0l3.2,3.2l3.2-3.2c0.6-0.6,1.7-0.6,2.3,0l0,0c0.6,0.6,0.6,1.7,0,2.3L42.4,59
	l3.2,3.2c0.6,0.6,0.6,1.7,0,2.3l0,0c-0.6,0.6-1.7,0.6-2.3,0L40,61.4l-3.2,3.2c-0.6,0.6-1.7,0.6-2.3,0l0,0c-0.6-0.6-0.6-1.7,0-2.3
	l3.2-3.2L34.4,55.8z"/>
</svg>
