<svg width="64" height="65" viewBox="0 0 64 65" fill="none" xmlns="http://www.w3.org/2000/svg">
<rect y="0.0246582" width="64" height="64" rx="32" fill="#008672" fill-opacity="0.1"/>
<rect x="0.5" y="0.524658" width="63" height="63" rx="31.5" stroke="#008672" stroke-opacity="0.2"/>
<path d="M18.1318 21.4908C22.0487 22.5521 26.1369 23.6544 30.2852 23.9713C34.4954 24.2928 38.7555 23.4025 42.7119 22.4615H42.7129C43.2658 22.3298 43.8365 22.1561 44.376 21.9957C44.9247 21.8325 45.4457 21.6824 45.9385 21.5826C46.4519 21.4788 46.8182 21.5471 47.0781 21.7007C47.3063 21.8357 47.5178 22.0743 47.6748 22.4673L47.7383 22.6451C47.8752 23.0715 47.8928 23.3923 47.8516 23.6373C47.8112 23.8771 47.7085 24.0805 47.5459 24.2681C47.1967 24.6707 46.5878 24.9861 45.7773 25.3062C44.6166 25.7644 43.3669 26.1453 42.0898 26.5455C40.8243 26.9421 39.5347 27.3575 38.3438 27.8785H38.3428C38.1252 27.9738 37.8205 28.1124 37.5469 28.3033C37.2787 28.4904 36.9643 28.7797 36.834 29.2095V29.2105C36.7174 29.5965 36.7011 30.1373 36.7188 30.6763C36.7372 31.2392 36.7967 31.886 36.8721 32.5279C37.0228 33.812 37.243 35.1247 37.3486 35.7877C37.7236 38.1398 38.1906 40.4782 38.6572 42.8033C39.1209 45.1137 39.5836 47.4106 39.9629 49.7164C39.9505 50.4233 39.2877 51.1349 38.5166 51.2466H37.6445C37.176 51.1158 36.896 50.8987 36.6953 50.6226C36.525 50.3882 36.3967 50.0913 36.2812 49.7164L36.1689 49.315C35.7261 47.5803 35.4185 45.5977 35.0244 43.565C34.6602 41.6866 34.2248 39.7845 33.541 38.1451L33.4004 37.8209C33.2821 37.5571 33.1605 37.3096 33.0303 37.1187C32.9237 36.9626 32.6986 36.67 32.3203 36.6168C31.8825 36.5553 31.5918 36.8461 31.4551 37.0191C31.3405 37.1641 31.2352 37.3482 31.1348 37.5552L31.0361 37.7691C30.2139 39.6243 29.7499 41.7743 29.3613 43.8873C28.9692 46.0197 28.6538 48.099 28.1377 49.94C27.9988 50.3222 27.8327 50.5926 27.6299 50.7925C27.4413 50.9783 27.1938 51.1272 26.8477 51.2408C26.6807 51.2357 26.5178 51.2445 26.3936 51.2505C26.211 51.2595 26.092 51.2623 25.998 51.2505H25.9971C25.2058 51.1491 24.5194 50.4266 24.5098 49.7066C24.897 47.3137 25.3689 44.9299 25.8379 42.5318C26.3097 40.119 26.7785 37.6925 27.1514 35.2515C27.249 34.6117 27.4529 33.359 27.5879 32.1353C27.6554 31.5234 27.7069 30.9063 27.7188 30.3677C27.73 29.8528 27.7089 29.3299 27.5869 28.9527L27.5859 28.9517L27.5312 28.8023C27.2361 28.0873 26.6355 27.8101 26.1543 27.6148C25.5868 27.3845 24.7746 27.1423 23.8896 26.8912C22.9897 26.6358 22.0003 26.3676 21.0322 26.0767C20.0651 25.7861 19.1456 25.4809 18.3975 25.1597C17.6209 24.8264 17.1311 24.517 16.9229 24.2632C16.5758 23.8392 16.5228 23.1194 16.8105 22.4615C17.0871 21.8295 17.5806 21.4623 18.1318 21.4908ZM31.7686 12.8091C31.99 12.7844 32.5015 12.7843 32.7227 12.8091C34.9872 13.0631 36.0546 14.9233 35.9268 16.7925C35.863 17.7244 35.4978 18.6126 34.8643 19.2496C34.2408 19.8764 33.3234 20.2951 32.0703 20.2476C29.8098 20.1617 28.6231 18.4677 28.5596 16.6509C28.4959 14.8296 29.5661 13.0561 31.7686 12.8091Z" stroke="#008672" stroke-width="1.25"/>
</svg>
