<svg width="64" height="65" viewBox="0 0 64 65" fill="none" xmlns="http://www.w3.org/2000/svg">
<circle cx="32" cy="32.0247" r="32" fill="#008672" fill-opacity="0.1"/>
<circle cx="32" cy="32.0247" r="31.5" stroke="#008672" stroke-opacity="0.2"/>
<path d="M39.9604 16.0204C39.6193 16.0204 39.3272 15.7596 39.296 15.414C39.2626 15.0461 39.5324 14.7206 39.9002 14.6872L43.9423 14.3104C44.308 14.2747 44.6357 14.5467 44.6691 14.9146C44.7026 15.2825 44.4328 15.608 44.0649 15.6414L40.0251 16.016C40.005 16.016 39.9827 16.0182 39.9627 16.0182L39.9604 16.0204Z" fill="#008672"/>
<path d="M22.6149 41.4233C22.2448 41.4233 21.9461 41.1246 21.9461 40.7545V32.5143C21.9461 32.1442 22.2448 31.8454 22.6149 31.8454C22.985 31.8454 23.2838 32.1442 23.2838 32.5143V40.7545C23.2838 41.1246 22.985 41.4233 22.6149 41.4233Z" fill="#008672"/>
<path d="M29.4238 41.4233C29.0537 41.4233 28.755 41.1246 28.755 40.7545V26.5637C28.755 26.1936 29.0537 25.8949 29.4238 25.8949C29.7939 25.8949 30.0927 26.1936 30.0927 26.5637V40.7545C30.0927 41.1246 29.7939 41.4233 29.4238 41.4233Z" fill="#008672"/>
<path d="M35.9206 41.4233C35.5505 41.4233 35.2517 41.1246 35.2517 40.7545V28.1155C35.2517 27.7454 35.5505 27.4466 35.9206 27.4466C36.2907 27.4466 36.5894 27.7454 36.5894 28.1155V40.7545C36.5894 41.1246 36.2907 41.4233 35.9206 41.4233Z" fill="#008672"/>
<path d="M43.0527 41.4233C42.6826 41.4233 42.3839 41.1246 42.3839 40.7545V21.3757C42.3839 21.0056 42.6826 20.7068 43.0527 20.7068C43.4228 20.7068 43.7216 21.0056 43.7216 21.3757V40.7545C43.7216 41.1246 43.4228 41.4233 43.0527 41.4233Z" fill="#008672"/>
<path d="M18.6486 29.529C18.4636 29.529 18.2785 29.4532 18.147 29.3038C17.9018 29.0273 17.9285 28.6037 18.205 28.3607L27.7138 19.9622C27.9902 19.7169 28.4139 19.7437 28.6591 20.0201C28.9043 20.2966 28.8776 20.7202 28.6011 20.9632L19.0923 29.3595C18.9652 29.471 18.8069 29.5267 18.6486 29.5267V29.529Z" fill="#008672"/>
<path d="M35.9206 25.9172C35.8002 25.9172 35.6798 25.886 35.5705 25.8168L27.8052 21.0323C27.4908 20.8384 27.3927 20.4259 27.5867 20.1116C27.7807 19.7972 28.1931 19.6991 28.5075 19.8931L36.2728 24.6776C36.5872 24.8715 36.6853 25.284 36.4913 25.5983C36.3642 25.8035 36.1458 25.9172 35.9206 25.9172Z" fill="#008672"/>
<path d="M35.9206 25.9172C35.7757 25.9172 35.6307 25.8703 35.5081 25.7745C35.2183 25.5471 35.167 25.1257 35.3966 24.8359L43.4763 14.5646C43.706 14.2747 44.1251 14.2234 44.415 14.4531C44.7048 14.6827 44.7561 15.1019 44.5264 15.3917L36.4445 25.6608C36.313 25.828 36.1168 25.9172 35.9183 25.9172H35.9206Z" fill="#008672"/>
<path d="M44.4774 19.6768C44.143 19.6768 43.8531 19.4271 43.813 19.086L43.3381 15.055C43.2958 14.6872 43.5566 14.355 43.9245 14.3126C44.2923 14.268 44.6245 14.5311 44.6669 14.899L45.1418 18.9299C45.1841 19.2978 44.9233 19.63 44.5554 19.6723C44.5287 19.6746 44.5019 19.6768 44.4752 19.6768H44.4774Z" fill="#008672"/>
<path d="M47.3312 43.742H16.6688C16.2988 43.742 16 43.4433 16 43.0732C16 42.7031 16.2988 42.4043 16.6688 42.4043H47.3312C47.7012 42.4043 48 42.7031 48 43.0732C48 43.4433 47.7012 43.742 47.3312 43.742Z" fill="#008672"/>
</svg>
