<svg width="64" height="65" viewBox="0 0 64 65" fill="none" xmlns="http://www.w3.org/2000/svg">
<rect y="0.0246582" width="64" height="64" rx="32" fill="#008672" fill-opacity="0.1"/>
<rect x="0.5" y="0.524658" width="63" height="63" rx="31.5" stroke="#008672" stroke-opacity="0.2"/>
<path d="M43.6827 46.2893H19.7831C17.6968 46.2893 16 44.5925 16 42.5062V28.6908C16 26.6045 17.6968 24.9077 19.7831 24.9077H43.6827C45.769 24.9077 47.4658 26.6045 47.4658 28.6908V42.5062C47.4658 44.5925 45.769 46.2893 43.6827 46.2893ZM19.7831 26.2695C18.4485 26.2695 17.3618 27.3562 17.3618 28.6908V42.5062C17.3618 43.8408 18.4485 44.9275 19.7831 44.9275H43.6827C45.0173 44.9275 46.104 43.8408 46.104 42.5062V28.6908C46.104 27.3562 45.0173 26.2695 43.6827 26.2695H19.7831Z" fill="#008672"/>
<path d="M17.5429 45.3293C17.3482 45.3293 17.1534 45.2462 17.0186 45.0841C16.7776 44.7954 16.8171 44.3665 17.1058 44.1254L30.3248 33.1193C31.1528 32.4262 32.3593 32.4221 33.1914 33.1139L46.375 43.9647C46.665 44.203 46.7073 44.6334 46.4676 44.9234C46.2293 45.2135 45.7989 45.2557 45.5089 45.016L32.3225 34.1625C31.9944 33.8901 31.5218 33.8915 31.1963 34.1625L17.9787 45.1713C17.852 45.2775 17.6968 45.3293 17.5429 45.3293Z" fill="#008672"/>
<path d="M45.9106 27.2132C45.6559 27.2132 45.4122 27.0702 45.2951 26.8251L42.6818 21.3384C42.5197 20.9993 42.6641 20.5921 43.0032 20.4314C43.3422 20.2694 43.7494 20.4137 43.9101 20.7528L46.5234 26.2395C46.6855 26.5786 46.5411 26.9858 46.202 27.1465C46.1081 27.1914 46.0073 27.2132 45.9092 27.2132H45.9106Z" fill="#008672"/>
<path d="M17.5797 27.1928C17.4789 27.1928 17.3768 27.1696 17.2801 27.1233C16.9424 26.9572 16.8035 26.55 16.9696 26.2123L19.6483 20.7637C19.8144 20.426 20.2216 20.2871 20.5593 20.4532C20.897 20.6194 21.0359 21.0266 20.8698 21.3643L20.4184 22.2825L18.1911 26.8128C18.0727 27.0539 17.8316 27.1928 17.5797 27.1928Z" fill="#008672"/>
<path d="M26.7514 34.1611C26.6084 34.1611 26.4627 34.1162 26.3402 34.0222L17.1684 27.0539C16.8688 26.8265 16.8103 26.3989 17.0377 26.0993C17.2651 25.7997 17.6927 25.7411 17.9923 25.9685L27.1627 32.9369C27.4623 33.1643 27.5208 33.5919 27.2934 33.8915C27.16 34.0672 26.9557 34.1611 26.7514 34.1611Z" fill="#008672"/>
<path d="M36.7661 34.1611C36.5605 34.1611 36.3576 34.0685 36.2241 33.8915C35.9967 33.5919 36.0552 33.1643 36.3548 32.9369L45.4993 25.989C45.7989 25.7615 46.2265 25.8201 46.454 26.1197C46.6814 26.4193 46.6228 26.8469 46.3232 27.0743L37.1787 34.0222C37.0562 34.1162 36.9105 34.1611 36.7675 34.1611H36.7661Z" fill="#008672"/>
<path d="M20.2597 29.2886C19.8839 29.2886 19.5788 28.9836 19.5788 28.6077V22.4985V18.6774C19.5788 17.2149 20.769 16.0247 22.2316 16.0247H41.3241C42.7866 16.0247 43.9768 17.2149 43.9768 18.6774V28.5178C43.9768 28.8937 43.6718 29.1987 43.2959 29.1987C42.9201 29.1987 42.615 28.8937 42.615 28.5178V18.6774C42.615 17.9652 42.0363 17.3865 41.3241 17.3865H22.2316C21.5194 17.3865 20.9406 17.9652 20.9406 18.6774V28.6077C20.9406 28.9836 20.6356 29.2886 20.2597 29.2886Z" fill="#008672"/>
</svg>
