<svg width="64" height="65" viewBox="0 0 64 65" fill="none" xmlns="http://www.w3.org/2000/svg">
<circle cx="32" cy="32.0247" r="32" fill="#008672" fill-opacity="0.1"/>
<circle cx="32" cy="32.0247" r="31.5" stroke="#008672" stroke-opacity="0.2"/>
<path d="M43.9007 46.3725C43.505 46.3725 43.1857 46.0532 43.1857 45.6575V31.4891C43.1857 31.0935 43.505 30.7741 43.9007 30.7741C44.2963 30.7741 44.6156 31.0935 44.6156 31.4891V45.6575C44.6156 46.0532 44.2963 46.3725 43.9007 46.3725Z" fill="#008672"/>
<path d="M45.1018 32.204C44.8182 32.204 44.5513 32.0348 44.4393 31.756L42.1966 26.2173C42.1656 26.1387 42.1466 26.0576 42.1442 25.9742L41.8248 16.8511C41.8105 16.4555 42.1204 16.1242 42.5136 16.1123C42.914 16.0932 43.2405 16.4078 43.2524 16.8011L43.567 25.7979L45.762 31.2198C45.9097 31.5868 45.7334 32.0015 45.3687 32.1516C45.2806 32.1874 45.19 32.204 45.1018 32.204Z" fill="#008672"/>
<path d="M49.823 32.204H28.2117C27.816 32.204 27.4967 31.8847 27.4967 31.4891C27.4967 31.0935 27.816 30.7741 28.2117 30.7741H49.823C50.2187 30.7741 50.538 31.0935 50.538 31.4891C50.538 31.8847 50.2187 32.204 49.823 32.204Z" fill="#008672"/>
<path d="M37.4182 29.4442C37.3229 29.4442 37.2275 29.4252 37.1346 29.3847C36.7723 29.2274 36.6055 28.8079 36.7604 28.4457L41.882 16.5699C42.0393 16.2076 42.4588 16.0408 42.821 16.1957C43.1833 16.353 43.3501 16.7725 43.1952 17.1347L38.0736 29.0105C37.9568 29.2798 37.6923 29.4419 37.4158 29.4419L37.4182 29.4442Z" fill="#008672"/>
<path d="M37.4182 29.4442C37.1584 29.4442 36.9082 29.3036 36.7819 29.0558C36.6007 28.7054 36.739 28.2741 37.0893 28.0929L42.2109 25.457C42.5636 25.2759 42.9926 25.4141 43.1738 25.7645C43.3549 26.1148 43.2167 26.5462 42.8663 26.7273L37.7447 29.3632C37.6398 29.418 37.5278 29.4419 37.4182 29.4419V29.4442Z" fill="#008672"/>
<path d="M24.3818 20.3902C22.2225 20.3902 20.4661 18.7434 20.4661 16.7176C20.4661 14.6919 22.2225 13.0474 24.3818 13.0474C26.541 13.0474 28.2975 14.6943 28.2975 16.72C28.2975 18.7458 26.541 20.3926 24.3818 20.3926V20.3902ZM24.3818 14.4774C23.0114 14.4774 21.896 15.4831 21.896 16.72C21.896 17.9569 23.0114 18.9627 24.3818 18.9627C25.7521 18.9627 26.8675 17.9569 26.8675 16.72C26.8675 15.4831 25.7521 14.4774 24.3818 14.4774Z" fill="#008672"/>
<path d="M35.0373 46.4655C33.9911 46.4655 32.9448 45.8696 32.4205 44.8687L28.0282 36.4987C27.8446 36.1483 27.9781 35.717 28.3284 35.5335C28.6788 35.3499 29.1102 35.4858 29.2937 35.8337L33.686 44.2038C34.0435 44.8854 34.8872 45.2214 35.5259 44.933C35.8 44.8091 36.0073 44.5851 36.105 44.3015C36.2194 43.9726 36.1837 43.6032 36.0049 43.2624C36.0002 43.2528 35.9954 43.2457 35.993 43.2361L32.3705 35.6145C32.2012 35.257 32.3538 34.8304 32.7089 34.6612C33.0664 34.492 33.493 34.6445 33.6622 34.9996L37.2776 42.6094C37.6303 43.291 37.6946 44.0751 37.4563 44.7662C37.2275 45.4264 36.7485 45.9483 36.1098 46.2343C35.7666 46.3868 35.402 46.4607 35.0373 46.4607V46.4655Z" fill="#008672"/>
<path d="M25.5377 36.6226C22.99 36.6226 21.3598 36.4915 20.2397 35.3785C18.774 33.9248 18.538 31.0553 18.538 24.7564C18.538 24.3607 18.8574 24.0414 19.253 24.0414C19.6486 24.0414 19.968 24.3607 19.968 24.7564C19.968 30.4071 20.1586 33.286 21.2478 34.3657C22.1105 35.2213 23.8408 35.2093 26.7102 35.1879C27.1821 35.1855 27.6826 35.1807 28.2117 35.1807C28.6073 35.1807 28.9266 35.5001 28.9266 35.8957C28.9266 36.2913 28.6073 36.6107 28.2117 36.6107C27.685 36.6107 27.1869 36.6155 26.7197 36.6178C26.3051 36.6202 25.9118 36.6226 25.5377 36.6226Z" fill="#008672"/>
<path d="M25.1706 45.0713C24.775 45.0713 24.4557 44.7519 24.4557 44.3563V35.8909C24.4557 35.4953 24.775 35.176 25.1706 35.176C25.5663 35.176 25.8856 35.4953 25.8856 35.8909V44.3563C25.8856 44.7519 25.5663 45.0713 25.1706 45.0713Z" fill="#008672"/>
<path d="M25.3947 36.6059C23.1234 36.6059 21.2812 32.5758 20.8784 28.8413C20.4565 24.9351 21.6649 22.2825 24.1101 21.7463C24.1792 21.732 24.2483 21.7272 24.3198 21.732C26.8651 21.9322 28.481 23.8507 30.0396 25.7073C31.4314 27.3637 32.747 28.9295 34.6274 29.2464C35.0159 29.3132 35.278 29.6802 35.2137 30.071C35.1493 30.4619 34.7799 30.724 34.3891 30.6573C31.9915 30.2522 30.4424 28.4099 28.9433 26.6296C27.5348 24.9566 26.205 23.3717 24.3127 23.1691C21.958 23.7912 22.1725 27.54 22.2964 28.6887C22.6754 32.1826 24.315 35.176 25.3923 35.176C25.7879 35.176 26.1073 35.4953 26.1073 35.8909C26.1073 36.2866 25.7879 36.6059 25.3923 36.6059H25.3947Z" fill="#008672"/>
<path d="M32.7708 35.8838C32.6493 35.8838 32.5277 35.8528 32.4157 35.7885L29.3771 34.0463C29.0339 33.8509 28.9171 33.4124 29.1125 33.0716C29.308 32.7284 29.7465 32.6116 30.0873 32.807L33.1259 34.5492C33.4691 34.7446 33.5859 35.1831 33.3905 35.5239C33.2594 35.7551 33.0163 35.8838 32.7685 35.8838H32.7708Z" fill="#008672"/>
</svg>
